<?xml version="1.0" encoding="UTF-8"?>
<svg xmlns="http://www.w3.org/2000/svg" xmlns:xlink="http://www.w3.org/1999/xlink" width="20px" height="20px" viewBox="0 0 20 20" version="1.1">
<g id="surface1">
<path style=" stroke:none;fill-rule:nonzero;fill:rgb(0%,0%,0%);fill-opacity:1;" d="M 11.175781 10 L 14.757812 6.425781 C 15.085938 6.097656 15.085938 5.570312 14.757812 5.242188 C 14.429688 4.914062 13.902344 4.914062 13.574219 5.242188 L 10 8.824219 L 6.425781 5.242188 C 6.097656 4.914062 5.570312 4.914062 5.242188 5.242188 C 4.914062 5.570312 4.914062 6.097656 5.242188 6.425781 L 8.824219 10 L 5.242188 13.574219 C 5.082031 13.730469 4.996094 13.945312 4.996094 14.167969 C 4.996094 14.390625 5.082031 14.601562 5.242188 14.757812 C 5.398438 14.917969 5.609375 15.003906 5.832031 15.003906 C 6.054688 15.003906 6.269531 14.917969 6.425781 14.757812 L 10 11.175781 L 13.574219 14.757812 C 13.730469 14.917969 13.945312 15.003906 14.167969 15.003906 C 14.390625 15.003906 14.601562 14.917969 14.757812 14.757812 C 14.917969 14.601562 15.003906 14.390625 15.003906 14.167969 C 15.003906 13.945312 14.917969 13.730469 14.757812 13.574219 Z M 11.175781 10 "/>
</g>
</svg>
