<?xml version="1.0" encoding="UTF-8"?>
<svg xmlns="http://www.w3.org/2000/svg" xmlns:xlink="http://www.w3.org/1999/xlink" width="20px" height="20px" viewBox="0 0 20 20" version="1.1">
<g id="surface1">
<path style=" stroke:none;fill-rule:nonzero;fill:rgb(0%,0%,0%);fill-opacity:1;" d="M 10 0 C 4.484375 0 0 4.484375 0 10 C 0 15.515625 4.484375 20 10 20 C 15.515625 20 20 15.515625 20 10 C 20 4.484375 15.515625 0 10 0 Z M 10 18.179688 C 5.488281 18.179688 1.816406 14.511719 1.816406 10 C 1.816406 5.488281 5.488281 1.820312 10 1.820312 C 14.511719 1.820312 18.183594 5.488281 18.183594 10 C 18.183594 14.511719 14.511719 18.179688 10 18.179688 Z M 10 18.179688 "/>
<path style=" stroke:none;fill-rule:nonzero;fill:rgb(0%,0%,0%);fill-opacity:1;" d="M 10 7.878906 C 9.496094 7.878906 9.089844 8.285156 9.089844 8.789062 L 9.089844 14.847656 C 9.089844 15.351562 9.496094 15.757812 10 15.757812 C 10.503906 15.757812 10.910156 15.351562 10.910156 14.847656 L 10.910156 8.789062 C 10.910156 8.285156 10.503906 7.878906 10 7.878906 Z M 10 7.878906 "/>
<path style=" stroke:none;fill-rule:nonzero;fill:rgb(0%,0%,0%);fill-opacity:1;" d="M 10 4.242188 C 9.761719 4.242188 9.527344 4.339844 9.355469 4.507812 C 9.1875 4.679688 9.089844 4.914062 9.089844 5.152344 C 9.089844 5.390625 9.1875 5.625 9.355469 5.796875 C 9.527344 5.964844 9.761719 6.0625 10 6.0625 C 10.238281 6.0625 10.472656 5.964844 10.644531 5.796875 C 10.8125 5.625 10.910156 5.390625 10.910156 5.152344 C 10.910156 4.914062 10.8125 4.679688 10.644531 4.507812 C 10.472656 4.339844 10.238281 4.242188 10 4.242188 Z M 10 4.242188 "/>
</g>
</svg>
