<?xml version="1.0" encoding="UTF-8"?>
<svg xmlns="http://www.w3.org/2000/svg" xmlns:xlink="http://www.w3.org/1999/xlink" width="20px" height="20px" viewBox="0 0 20 20" version="1.1">
<g id="surface1">
<path style=" stroke:none;fill-rule:nonzero;fill:rgb(0%,0%,0%);fill-opacity:1;" d="M 19.324219 7.121094 L 13.363281 6.269531 L 10.722656 0.859375 C 10.394531 0.230469 9.492188 0.359375 9.277344 0.859375 L 6.636719 6.269531 L 0.671875 7.121094 C 0 7.164062 -0.214844 7.976562 0.246094 8.480469 L 4.546875 12.699219 L 3.523438 18.621094 C 3.402344 19.351562 4.207031 19.761719 4.675781 19.472656 L 9.996094 16.664062 L 15.320312 19.433594 C 15.878906 19.71875 16.542969 19.316406 16.472656 18.625 L 15.449219 12.699219 L 19.75 8.480469 C 20.273438 7.929688 19.898438 7.191406 19.324219 7.121094 Z M 14.042969 11.804688 C 13.871094 12.019531 13.789062 12.273438 13.828125 12.53125 L 14.636719 17.300781 L 10.378906 15.042969 C 10.105469 14.929688 9.847656 14.929688 9.613281 15.042969 L 5.355469 17.300781 L 6.164062 12.53125 C 6.203125 12.230469 6.121094 11.976562 5.949219 11.804688 L 2.503906 8.441406 L 7.273438 7.761719 C 7.527344 7.71875 7.738281 7.589844 7.871094 7.335938 L 10.003906 3.03125 L 12.132812 7.335938 C 12.261719 7.546875 12.472656 7.71875 12.730469 7.761719 L 17.492188 8.441406 Z M 14.042969 11.804688 "/>
</g>
</svg>
