<?xml version="1.0" encoding="UTF-8"?>
<svg xmlns="http://www.w3.org/2000/svg" xmlns:xlink="http://www.w3.org/1999/xlink" width="20px" height="20px" viewBox="0 0 20 20" version="1.1">
<g id="surface1">
<path style=" stroke:none;fill-rule:nonzero;fill:rgb(0%,0%,0%);fill-opacity:1;" d="M 15.691406 13.046875 C 15.691406 13.21875 15.546875 13.363281 15.371094 13.363281 L 4.628906 13.363281 C 4.453125 13.363281 4.308594 13.21875 4.308594 13.046875 L 4.308594 12.832031 C 4.308594 12.65625 4.453125 12.515625 4.628906 12.515625 L 15.371094 12.515625 C 15.546875 12.515625 15.691406 12.65625 15.691406 12.832031 Z M 15.691406 13.046875 "/>
<path style=" stroke:none;fill-rule:nonzero;fill:rgb(0%,0%,0%);fill-opacity:1;" d="M 9.121094 4.226562 C 9.121094 4.402344 8.976562 4.546875 8.804688 4.546875 L 4.628906 4.546875 C 4.453125 4.546875 4.308594 4.402344 4.308594 4.226562 L 4.308594 4.015625 C 4.308594 3.839844 4.453125 3.695312 4.628906 3.695312 L 8.804688 3.695312 C 8.976562 3.695312 9.121094 3.839844 9.121094 4.015625 Z M 9.121094 4.226562 "/>
<path style=" stroke:none;fill-rule:nonzero;fill:rgb(0%,0%,0%);fill-opacity:1;" d="M 15.527344 15.984375 C 15.527344 16.160156 15.386719 16.304688 15.210938 16.304688 L 11.035156 16.304688 C 10.859375 16.304688 10.71875 16.160156 10.71875 15.984375 L 10.71875 15.773438 C 10.71875 15.597656 10.859375 15.453125 11.035156 15.453125 L 15.210938 15.453125 C 15.386719 15.453125 15.527344 15.597656 15.527344 15.773438 Z M 15.527344 15.984375 "/>
<path style=" stroke:none;fill-rule:nonzero;fill:rgb(0%,0%,0%);fill-opacity:1;" d="M 11.335938 7.167969 C 11.335938 7.339844 11.191406 7.484375 11.015625 7.484375 L 4.628906 7.484375 C 4.453125 7.484375 4.308594 7.34375 4.308594 7.167969 L 4.308594 6.953125 C 4.308594 6.78125 4.453125 6.636719 4.628906 6.636719 L 11.015625 6.636719 C 11.191406 6.636719 11.335938 6.78125 11.335938 6.953125 Z M 11.335938 7.167969 "/>
<path style=" stroke:none;fill-rule:nonzero;fill:rgb(0%,0%,0%);fill-opacity:1;" d="M 15.691406 10.105469 C 15.691406 10.28125 15.546875 10.425781 15.371094 10.425781 L 4.628906 10.425781 C 4.453125 10.425781 4.308594 10.28125 4.308594 10.105469 L 4.308594 9.894531 C 4.308594 9.71875 4.453125 9.574219 4.628906 9.574219 L 15.371094 9.574219 C 15.546875 9.574219 15.691406 9.71875 15.691406 9.894531 Z M 15.691406 10.105469 "/>
<path style=" stroke:none;fill-rule:nonzero;fill:rgb(0%,0%,0%);fill-opacity:1;" d="M 17.71875 4.847656 L 12.574219 0.613281 C 12.148438 0.265625 11.410156 0 10.855469 0 L 2.761719 0 C 2.0625 0 1.492188 0.570312 1.492188 1.269531 C 1.492188 1.269531 1.492188 14.933594 1.492188 18.691406 C 1.492188 20 2.726562 20 2.757812 20 C 5.902344 20 17.238281 20 17.238281 20 C 17.9375 20 18.507812 19.429688 18.507812 18.730469 L 18.507812 6.519531 C 18.507812 5.9375 18.167969 5.21875 17.71875 4.847656 Z M 12.222656 1.917969 C 12.222656 1.605469 12.476562 1.84375 12.476562 1.84375 L 16.558594 5.332031 C 16.558594 5.332031 16.820312 5.585938 16.371094 5.585938 C 15.417969 5.585938 12.550781 5.585938 12.550781 5.585938 C 12.367188 5.585938 12.222656 5.441406 12.222656 5.257812 C 12.222656 5.257812 12.222656 2.753906 12.222656 1.917969 Z M 17.238281 19.058594 C 17.238281 19.058594 5.589844 19.058594 2.667969 19.058594 C 2.617188 19.058594 2.429688 19.042969 2.429688 18.789062 C 2.429688 15.25 2.429688 1.269531 2.429688 1.269531 C 2.429688 1.089844 2.582031 0.941406 2.761719 0.941406 L 10.855469 0.941406 C 10.996094 0.941406 11.28125 1.011719 11.28125 1.40625 L 11.28125 5.257812 C 11.28125 5.957031 11.851562 6.527344 12.550781 6.527344 L 17.332031 6.527344 C 17.421875 6.527344 17.566406 6.585938 17.566406 6.800781 C 17.566406 6.800781 17.570312 18.730469 17.570312 18.730469 C 17.570312 18.910156 17.421875 19.058594 17.238281 19.058594 Z M 17.238281 19.058594 "/>
</g>
</svg>
